HIERARCHY
ROOT Bip001_Pelvis
{
  OFFSET -22.4848 91.2454 47.947
  CHANNELS 6 Xposition Yposition Zposition Zrotation Xrotation Yrotation
  JOINT Bip001_Spine
  {
    OFFSET 1.44608e-005 10.4157 -0.0118244
    CHANNELS 3 Zrotation Xrotation Yrotation
    JOINT Bip001_L_Thigh
    {
      OFFSET 11.2582 -10.4157 0.0118432
      CHANNELS 3 Zrotation Xrotation Yrotation
      JOINT Bip001_L_Calf
      {
        OFFSET -0.720717 -44.8687 0.366937
        CHANNELS 3 Zrotation Xrotation Yrotation
        JOINT Bip001_L_Foot
        {
          OFFSET -0.664439 -41.3745 -3.62995
          CHANNELS 3 Zrotation Xrotation Yrotation
          JOINT Bip001_L_Toe0
          {
            OFFSET 0.0541048 -10.4146 13.4033
            CHANNELS 3 Zrotation Xrotation Yrotation
            End Site
            {
              OFFSET -1.04503e-005 0 7.70137
            }
          }
        }
      }
    }
    JOINT Bip001_R_Thigh
    {
      OFFSET -11.2582 -10.4156 0.0118122
      CHANNELS 3 Zrotation Xrotation Yrotation
      JOINT Bip001_R_Calf
      {
        OFFSET 0.72059 -44.8687 0.36676
        CHANNELS 3 Zrotation Xrotation Yrotation
        JOINT Bip001_R_Foot
        {
          OFFSET 0.664321 -41.3745 -3.62979
          CHANNELS 3 Zrotation Xrotation Yrotation
          JOINT Bip001_R_Toe0
          {
            OFFSET -0.05417 -10.4146 13.4033
            CHANNELS 3 Zrotation Xrotation Yrotation
            End Site
            {
              OFFSET -1.04873e-005 0 7.70137
            }
          }
        }
      }
    }
    JOINT Bip001_Spine1
    {
      OFFSET 1.90638e-005 14.8539 1.10727
      CHANNELS 3 Zrotation Xrotation Yrotation
      JOINT Bip001_Spine2
      {
        OFFSET 2.28934e-005 14.7848 -1.7233
        CHANNELS 3 Zrotation Xrotation Yrotation
        JOINT Bip001_Neck
        {
          OFFSET 2.24514e-005 15.6905 -0.498826
          CHANNELS 3 Zrotation Xrotation Yrotation
          JOINT Bip001_L_Clavicle
          {
            OFFSET 6.17691 -0.000591152 0.00852867
            CHANNELS 3 Zrotation Xrotation Yrotation
            JOINT Bip001_L_UpperArm
            {
              OFFSET 11.773 -0.0611878 0.00197697
              CHANNELS 3 Zrotation Xrotation Yrotation
              JOINT Bip001_L_Forearm
              {
                OFFSET 26.4515 0.0817566 -2.1958
                CHANNELS 3 Zrotation Xrotation Yrotation
                JOINT Bip001_L_Hand
                {
                  OFFSET 32.8678 0.156744 1.67112
                  CHANNELS 3 Zrotation Xrotation Yrotation
                  JOINT Bip001_L_Finger0
                  {
                    OFFSET 6.16269 -2.25227 6.0167
                    CHANNELS 3 Zrotation Xrotation Yrotation
                    End Site
                    {
                      OFFSET 4.305 -1.46663 0.618144
                    }
                  }
                  JOINT Bip001_L_Finger1
                  {
                    OFFSET 11.2958 -0.718377 -0.201962
                    CHANNELS 3 Zrotation Xrotation Yrotation
                    End Site
                    {
                      OFFSET 6.31953 -0.405165 -0.0802297
                    }
                  }
                }
              }
            }
          }
          JOINT Bip001_R_Clavicle
          {
            OFFSET -6.17691 -0.000574027 0.00851165
            CHANNELS 3 Zrotation Xrotation Yrotation
            JOINT Bip001_R_UpperArm
            {
              OFFSET -11.773 -0.0611516 0.00194365
              CHANNELS 3 Zrotation Xrotation Yrotation
              JOINT Bip001_R_Forearm
              {
                OFFSET -26.4514 0.0822336 -2.19736
                CHANNELS 3 Zrotation Xrotation Yrotation
                JOINT Bip001_R_Hand
                {
                  OFFSET -32.8677 0.156816 1.67144
                  CHANNELS 3 Zrotation Xrotation Yrotation
                  JOINT Bip001_R_Finger0
                  {
                    OFFSET -6.16269 -2.25224 6.01673
                    CHANNELS 3 Zrotation Xrotation Yrotation
                    End Site
                    {
                      OFFSET -4.30499 -1.46661 0.618137
                    }
                  }
                  JOINT Bip001_R_Finger1
                  {
                    OFFSET -11.2957 -0.718342 -0.201995
                    CHANNELS 3 Zrotation Xrotation Yrotation
                    End Site
                    {
                      OFFSET -6.31951 -0.405145 -0.080248
                    }
                  }
                }
              }
            }
          }
          JOINT Bip001_Head
          {
            OFFSET 1.11782e-005 11.4912 2.09908
            CHANNELS 3 Zrotation Xrotation Yrotation
            End Site
            {
              OFFSET 2.95144e-005 21.2823 -2.83069e-005
            }
          }
        }
      }
    }
  }
}
MOTION
Frames:	6
Frame Time:	0.0333333
4.06358 93.4473 -1.24951 1.26106 -3.51401 3.72793 -1.32874 2.69182 2.42377 -0.0346643 -0.139749 8.34314 -0.608305 12.7724 -6.63042 -4.53992 4.72927 -14.9313 -1.05507e-006 1.5566e-006 8.83188e-007 -1.72152 -13.0579 0.549941 -0.619594 27.4563 -5.02805 3.98827 -8.49435 1.97213 1.16613e-007 -1.28186e-006 -6.34891e-007 -2.7738 5.30743 4.91711 -2.7738 5.30743 4.91713 1.11771 -29.7282 -8.12638 -21.2292 25.745 21.4046 -35.3721 47.5616 -34.0049 -2.16264 0.495755 -22.235 7.41488 15.5093 -6.37942 3.18055e-015 -3.18055e-015 -3.18055e-015 3.18055e-015 3.18056e-015 -3.18055e-015 7.76891 29.8661 -4.16217 62.8731 33.7001 13.444 1.72759 0.322709 17.5728 -15.462 6.59716 18.0137 3.18055e-015 0 -0 1.76556e-031 -3.18056e-015 3.18055e-015 -10.6054 13.1073 4.51424 
4.14845 93.4557 -1.2688 1.23097 -3.58405 3.60803 -1.42955 2.67719 2.22597 0.0757801 -0.065705 8.78525 -0.77446 12.8879 -8.41207 -4.47656 4.63649 -13.5211 -1.05507e-006 1.5566e-006 8.83188e-007 -2.03969 -12.9647 -0.956808 -0.651166 27.3238 -5.3615 3.95137 -8.29868 4.00222 1.16613e-007 -1.28186e-006 -6.34891e-007 -2.967 5.29593 4.52546 -2.967 5.29592 4.52547 -2.10863 -27.0401 -11.2181 -18.091 23.216 22.2367 -37.9258 42.1994 -31.6524 -2.38368 0.599922 -24.6675 4.13553 20.819 -7.65279 -7.06225e-031 6.36111e-015 6.36111e-015 -3.18055e-015 0 4.77083e-015 4.4797 28.063 4.03551 69.8752 29.2822 1.9166 2.88113 0.87938 30.3471 -14.6358 4.42157 16.0646 3.18055e-015 9.54166e-015 -0 0 9.54167e-015 -0 -10.4914 13.196 4.35106 
4.26524 93.4623 -1.28585 1.16336 -3.64049 3.26101 -1.57954 2.54355 1.68908 0.165669 0.177965 9.11806 -0.964513 13.0032 -10.4451 -4.4762 4.22577 -11.2145 -1.05507e-006 1.5566e-006 8.83188e-007 -2.08822 -12.8132 -1.55589 -0.631338 27.0109 -5.21153 3.64837 -7.86261 5.06253 1.16613e-007 -1.28186e-006 -6.34891e-007 -3.2383 5.03847 3.4528 -3.23829 5.03847 3.4528 -5.71824 -22.5167 -15.0419 -13.1071 19.5416 22.7347 -41.5908 37.6673 -28.2278 -2.67548 0.755819 -27.9606 2.9599 22.7439 -9.23307 -1.58901e-030 -9.54166e-015 -9.54166e-015 3.18055e-015 -9.54167e-015 -1.27222e-014 0.790593 23.3348 9.24128 75.6903 30.7161 -3.53551 3.74536 1.54395 41.2039 -8.89278 1.51188 13.0189 -9.54166e-015 0 9.54166e-015 -9.54166e-015 0 6.36111e-015 -9.97848 13.4123 3.92614 
4.27937 93.4678 -1.40774 1.07588 -3.65331 2.85805 -1.82214 2.43186 1.02191 0.588516 0.838977 11.5961 -1.13703 12.442 -12.3074 -4.24147 4.29184 -10.8953 -1.05507e-006 1.5566e-006 8.83188e-007 -1.32505 -12.9454 0.592758 -0.642277 27.1158 -5.29339 3.62926 -7.76252 4.04582 1.16613e-007 -1.28186e-006 -6.34891e-007 -3.69241 4.82958 2.12365 -3.6924 4.82959 2.12366 -8.38582 -16.1648 -18.4246 -8.40373 14.1724 23.7223 -43.6138 39.1884 -24.9232 -2.98269 0.944377 -31.5467 6.17881 18.9331 -9.31611 -3.18055e-015 -3.18055e-015 -0 -6.36111e-015 0 -1.59028e-015 -1.53334 16.3717 11.2653 77.9152 37.8423 -4.07195 4.29445 2.13234 49.2091 -2.29797 -0.785993 10.5509 -9.54166e-015 3.18055e-015 -3.18055e-015 -9.54166e-015 6.36111e-015 -0 -11.7448 16.4734 4.96985 
4.19283 93.4995 -1.47901 0.918801 -3.44597 2.60085 -1.72243 2.54611 0.202511 0.655302 1.52062 14.577 -1.20688 10.9467 -13.1054 -4.12208 4.86759 -12.0864 -1.05507e-006 1.5566e-006 8.83188e-007 -0.981147 -13.6784 2.10253 -0.530945 27.509 -4.12463 3.37468 -7.82336 2.30417 1.16613e-007 -1.28186e-006 -6.34891e-007 -3.45899 5.08505 0.482353 -3.45901 5.08503 0.482352 -11.9967 -8.88865 -21.3975 -3.43741 8.04403 25.9424 -43.5304 42.7464 -23.614 -3.15813 1.06448 -33.6616 8.68385 13.8715 -8.83693 -5.29669e-031 6.36111e-015 4.77083e-015 0 1.59028e-015 -0 0.587871 9.69281 12.5197 74.0364 43.7574 -1.56549 4.79023 2.84856 57.8701 0.175463 -0.480415 10.1107 -1.76556e-031 3.18055e-015 3.18055e-015 0 0 -0 -12.8104 17.4406 5.56706 
4.46515 93.5328 -1.50694 0.720255 -2.75585 2.72518 -2.35616 2.03448 -0.256862 1.34414 0.864443 13.3804 -1.27883 12.2387 -13.8388 -4.19762 3.84553 -10.2833 -1.05507e-006 1.5566e-006 8.83188e-007 -0.220486 -13.485 2.15428 -0.462788 26.2639 -3.60697 3.19461 -6.95071 2.03406 1.16613e-007 -1.28186e-006 -6.34891e-007 -4.70768 4.07794 -0.430043 -4.70768 4.07794 -0.430045 -13.7486 -3.80969 -24.9859 -0.923618 3.37179 30.3224 -41.1087 45.1878 -25.1931 -3.2444 1.1271 -34.722 8.7583 10.4828 -8.245 1.27222e-014 -4.77083e-015 -7.95139e-015 1.27222e-014 -3.18056e-015 -7.95139e-015 2.94991 5.53233 16.235 71.376 43.0592 -2.6044 5.23365 3.79133 68.2373 -1.80374 -1.10803 10.8195 -3.18055e-015 -3.18055e-015 3.18055e-015 -6.36111e-015 -7.95139e-015 -0 -7.5948 12.6963 2.09796 
